<svg xmlns="http://www.w3.org/2000/svg" viewBox="0 0 40 50" fill="none">
  <defs>
    <linearGradient id="arm" x1="17" y1="8" x2="23" y2="8" gradientUnits="userSpaceOnUse"><stop stop-color="#745327"/><stop offset=".4" stop-color="#ffe5a8"/><stop offset="1" stop-color="#88602b"/></linearGradient>
    <linearGradient id="edge" x1="11" y1="26" x2="29" y2="44" gradientUnits="userSpaceOnUse"><stop stop-color="#947039"/><stop offset=".45" stop-color="#e5b968"/><stop offset="1" stop-color="#704b22"/></linearGradient>
    <linearGradient id="brass" x1="11" y1="20" x2="30" y2="43" gradientUnits="userSpaceOnUse"><stop stop-color="#b08847"/><stop offset=".2" stop-color="#fff0c6"/><stop offset=".42" stop-color="#dfba76"/><stop offset=".74" stop-color="#f2d59d"/><stop offset="1" stop-color="#af7d36"/></linearGradient>
  </defs>
  <ellipse cx="20" cy="5" rx="5.5" ry="3" fill="#090a0d" stroke="#6a5c42"/>
  <path d="M17 3h6v13h-6Z" fill="url(#arm)" stroke="#b3955c" stroke-width=".5"/>
  <path d="M14 15h12v11c0 5 4 8 4 14 0 5-4 8-10 8s-10-3-10-8c0-6 4-9 4-14Z" fill="url(#edge)" stroke="#805826" stroke-width=".7"/>
  <path d="M14 13h12v11c0 5 4 8 4 14 0 5-4 8-10 8s-10-3-10-8c0-6 4-9 4-14Z" fill="url(#brass)" stroke="#ead3a1" stroke-width=".7"/>
  <rect x="13" y="11" width="14" height="3" rx=".8" fill="url(#edge)" stroke="#ead3a1" stroke-width=".5"/>
  <path d="M15 16v8c0 5-4 9-4 14 0 3 1 5 4 6" stroke="#fff4d8" stroke-width="1" stroke-linecap="round" opacity=".8"/>
  <path d="M14 43c4 3 9 3 13-1" stroke="#8b642d" stroke-width=".6" opacity=".5"/>
</svg>
